<svg width="17" height="14" viewBox="0 0 17 14" fill="none" xmlns="http://www.w3.org/2000/svg">
<path d="M5.69994 13.5005C11.7362 13.5005 15.0387 8.49829 15.0387 4.16173C15.0387 4.0211 15.0356 3.87735 15.0293 3.73673C15.6718 3.27213 16.2262 2.69666 16.6665 2.03735C16.0682 2.30356 15.4329 2.47741 14.7824 2.55298C15.4674 2.14243 15.9802 1.49747 16.2259 0.737666C15.5815 1.11953 14.8769 1.3889 14.1421 1.53423C13.6471 1.0082 12.9925 0.659899 12.2796 0.543189C11.5668 0.426479 10.8353 0.547855 10.1983 0.888553C9.56137 1.22925 9.05437 1.77029 8.75574 2.42803C8.4571 3.08577 8.38346 3.82357 8.54619 4.52735C7.2415 4.46188 5.96513 4.12296 4.79983 3.53255C3.63452 2.94215 2.6063 2.11345 1.78182 1.10017C1.36277 1.82265 1.23454 2.67759 1.42319 3.49122C1.61184 4.30485 2.10321 5.01612 2.79744 5.48048C2.27626 5.46393 1.76649 5.32361 1.31025 5.0711V5.11173C1.30979 5.86992 1.5719 6.60488 2.05204 7.19167C2.53219 7.77846 3.20072 8.18086 3.944 8.33048C3.46121 8.46257 2.95449 8.48182 2.46307 8.38673C2.67281 9.03878 3.08089 9.60908 3.63035 10.018C4.17982 10.427 4.84325 10.6542 5.52807 10.668C4.36545 11.5812 2.92929 12.0766 1.45088 12.0742C1.1887 12.0738 0.92677 12.0578 0.666504 12.0261C2.16841 12.9897 3.91552 13.5014 5.69994 13.5005Z" fill="white"/>
</svg>
