<svg width="136" height="20" viewBox="0 0 136 20" fill="none" xmlns="http://www.w3.org/2000/svg">
<g clip-path="url(#clip0_1_376)">
<path d="M1585.5 -34.2H-294.5V5089.8H1585.5V-34.2Z" fill="white"/>
<mask id="mask0_1_376" style="mask-type:luminance" maskUnits="userSpaceOnUse" x="0" y="-5" width="137" height="31">
<path d="M136.5 -4.2H0.5V25.8H136.5V-4.2Z" fill="black"/>
</mask>
<g mask="url(#mask0_1_376)">
<path fill-rule="evenodd" clip-rule="evenodd" d="M5.3 11.92C5.124 11.664 4.884 11.284 4.58 10.78C4.276 10.276 4.076 9.944 3.98 9.784L3.884 9.856V19.504H0.5V3.04H3.644L8.828 10.672L9.548 11.8C9.804 12.248 10.004 12.576 10.148 12.784L10.22 12.712V3.04H13.604V19.504H10.46L5.3 11.92ZM31.196 12.448C31.196 13.952 30.868 15.256 30.212 16.36C29.556 17.464 28.672 18.304 27.56 18.88C26.448 19.456 25.212 19.744 23.852 19.744C22.492 19.744 21.256 19.456 20.144 18.88C19.032 18.304 18.148 17.464 17.492 16.36C16.836 15.256 16.508 13.952 16.508 12.448V10.096C16.508 8.592 16.836 7.28801 17.492 6.184C18.148 5.08 19.032 4.24001 20.144 3.664C21.256 3.088 22.492 2.8 23.852 2.8C25.212 2.8 26.448 3.088 27.56 3.664C28.672 4.24001 29.556 5.08 30.212 6.184C30.868 7.28801 31.196 8.592 31.196 10.096V12.448ZM27.308 9.568C27.308 8.352 26.988 7.41201 26.348 6.748C25.708 6.084 24.876 5.752 23.852 5.752C22.828 5.752 21.996 6.084 21.356 6.748C20.716 7.41201 20.396 8.352 20.396 9.568V12.976C20.396 14.192 20.716 15.132 21.356 15.796C21.996 16.46 22.828 16.792 23.852 16.792C24.876 16.792 25.708 16.46 26.348 15.796C26.988 15.132 27.308 14.192 27.308 12.976V9.568ZM34.076 3.04H41.66V5.992H39.74V16.552H41.66V19.504H34.076V16.552H36.02V5.992H34.076V3.04ZM48.452 12.976C48.452 14.192 48.78 15.132 49.436 15.796C50.092 16.46 50.924 16.792 51.932 16.792C53.068 16.792 53.908 16.484 54.452 15.868C54.996 15.252 55.268 14.304 55.268 13.024H58.652C58.652 14.432 58.368 15.644 57.8 16.66C57.232 17.676 56.452 18.444 55.46 18.964C54.468 19.484 53.348 19.744 52.1 19.744H51.764C50.388 19.744 49.156 19.464 48.068 18.904C46.98 18.344 46.124 17.516 45.5 16.42C44.876 15.324 44.564 14 44.564 12.448V10.096C44.564 8.592 44.876 7.28801 45.5 6.184C46.124 5.08 46.976 4.24001 48.056 3.664C49.136 3.088 50.34 2.8 51.668 2.8H52.004C53.284 2.8 54.424 3.052 55.424 3.556C56.424 4.06001 57.212 4.82 57.788 5.836C58.364 6.85201 58.652 8.096 58.652 9.568H55.124C55.124 8.32 54.848 7.37201 54.296 6.724C53.744 6.076 52.948 5.752 51.908 5.752C50.9 5.752 50.072 6.084 49.424 6.748C48.776 7.41201 48.452 8.352 48.452 9.568V12.976ZM61.532 19.504V3.04H73.124L72.716 5.992H65.18V9.592H72.212V12.544H65.18V16.552H72.788L73.196 19.504H61.532ZM75.884 19.504V3.04H79.604V16.432H86.372L86.78 19.504H75.884ZM98.276 16.264H91.724L90.572 19.504H86.996L92.972 3.04H97.388L103.364 19.504H99.476L98.276 16.264ZM92.732 13.456H97.292C96.684 11.648 95.948 9.49602 95.084 7H94.964L92.732 13.456ZM109.94 11.92C109.764 11.664 109.524 11.284 109.22 10.78C108.916 10.276 108.716 9.944 108.62 9.784L108.524 9.856V19.504H105.14V3.04H108.284L113.468 10.672L114.188 11.8C114.444 12.248 114.644 12.576 114.788 12.784L114.86 12.712V3.04H118.244V19.504H115.1L109.94 11.92ZM127.964 3.04C129.324 3.04 130.56 3.328 131.672 3.904C132.784 4.48001 133.668 5.32 134.324 6.424C134.98 7.52801 135.308 8.832 135.308 10.336V12.208C135.308 13.712 134.98 15.016 134.324 16.12C133.668 17.224 132.784 18.064 131.672 18.64C130.56 19.216 129.324 19.504 127.964 19.504H121.724V3.04H127.964ZM125.444 16.552H127.964C128.988 16.552 129.82 16.22 130.46 15.556C131.1 14.892 131.42 13.952 131.42 12.736V9.808C131.42 8.592 131.1 7.65201 130.46 6.988C129.82 6.324 128.988 5.992 127.964 5.992H125.444V16.552Z" fill="black"/>
</g>
</g>
<defs>
<clipPath id="clip0_1_376">
<rect width="135" height="17" fill="white" transform="translate(0.5 2.8)"/>
</clipPath>
</defs>
</svg>
